<svg xmlns="http://www.w3.org/2000/svg" viewBox="0 0 1200 830" width="100%" height="100%" style="background-color: #121214; border-radius: 8px;">
  <defs>
    <filter id="shadow" x="-5%" y="-5%" width="110%" height="110%">
      <feDropShadow dx="2" dy="3" stdDeviation="3" flood-color="#000000" flood-opacity="0.6" />
    </filter>
    <linearGradient id="gradient-accent" x1="0%" y1="0%" x2="100%" y2="100%">
      <stop offset="0%" stop-color="#3b82f6" />
      <stop offset="100%" stop-color="#1d4ed8" />
    </linearGradient>
    <linearGradient id="gradient-interface" x1="0%" y1="0%" x2="100%" y2="100%">
      <stop offset="0%" stop-color="#0d9488" />
      <stop offset="100%" stop-color="#0f766e" />
    </linearGradient>
    <linearGradient id="gradient-abstract" x1="0%" y1="0%" x2="100%" y2="100%">
      <stop offset="0%" stop-color="#b45309" />
      <stop offset="100%" stop-color="#92400e" />
    </linearGradient>
    
    <!-- UML Markers -->
    <marker id="inheritance" viewBox="0 0 10 10" refX="10" refY="5" markerWidth="7" markerHeight="7" orient="auto-start-reverse">
      <path d="M 0 0 L 10 5 L 0 10 z" fill="#121214" stroke="#a1a1aa" stroke-width="1.5"/>
    </marker>
    <marker id="realization" viewBox="0 0 10 10" refX="10" refY="5" markerWidth="7" markerHeight="7" orient="auto-start-reverse">
      <path d="M 0 0 L 10 5 L 0 10 z" fill="#121214" stroke="#a1a1aa" stroke-width="1.5"/>
    </marker>
    <marker id="association" viewBox="0 0 10 10" refX="10" refY="5" markerWidth="6" markerHeight="6" orient="auto-start-reverse">
      <path d="M 0 0 L 10 5 L 0 10" fill="none" stroke="#a1a1aa" stroke-width="1.5"/>
    </marker>
    <marker id="composition" viewBox="0 0 12 10" refX="0" refY="5" markerWidth="8" markerHeight="8" orient="auto-start-reverse">
      <path d="M 0 5 L 6 0 L 12 5 L 6 10 z" fill="#3b82f6" stroke="#3b82f6" stroke-width="1.5"/>
    </marker>
    <marker id="aggregation" viewBox="0 0 12 10" refX="0" refY="5" markerWidth="8" markerHeight="8" orient="auto-start-reverse">
      <path d="M 0 5 L 6 0 L 12 5 L 6 10 z" fill="#121214" stroke="#a1a1aa" stroke-width="1.5"/>
    </marker>
  </defs>

  <!-- Title Section -->
  <g transform="translate(20, 35)">
    <text font-family="system-ui, sans-serif" font-size="18" font-weight="bold" fill="#f4f4f5">Amplitron Audio Subsystem & DSP Architecture</text>
    <text font-family="system-ui, sans-serif" font-size="11" fill="#71717a" y="18">Real-time audio callback execution loop, hardware backends, processing graphs, and the parameterizable Effect hierarchy</text>
  </g>

  <!-- Content -->
  
    <!-- Class: IAudioEngine -->
    <g transform="translate(40, 70)" filter="url(#shadow)">
      <!-- Main Background -->
      <rect width="240" height="130" rx="6" ry="6" fill="#1c1c1f" stroke="#2c2c30" stroke-width="1.2" stroke-dasharray='4,4'/>
      
      <!-- Top Accent Bar -->
      <path d="M 1 6 Q 1 1 239 1 Q 239 6 239 30 L 1 30 Z" fill="url(#gradient-interface)" opacity="0.85"/>
      <line x1="1" y1="30" x2="239" y2="30" stroke="#2c2c30" stroke-width="1"/>
          <text x="120.0" y="15" font-family="system-ui, sans-serif" font-size="9" fill="#e4e4e7" text-anchor="middle" font-style="italic" opacity="0.8">&lt;&lt;interface&gt;&gt;</text>
      <text x="120.0" y="26" font-family="system-ui, sans-serif" font-size="12" font-weight="bold" font-style="italic" fill="#ffffff" text-anchor="middle">IAudioEngine</text>
      <text x="10" y="44" font-family="SFMono-Regular, Consolas, Monaco, monospace" font-size="9" fill="#e4e4e7">+ initialize() : bool</text>
      <text x="10" y="57" font-family="SFMono-Regular, Consolas, Monaco, monospace" font-size="9" fill="#e4e4e7">+ start() : bool</text>
      <text x="10" y="70" font-family="SFMono-Regular, Consolas, Monaco, monospace" font-size="9" fill="#e4e4e7">+ stop()</text>
      <text x="10" y="83" font-family="SFMono-Regular, Consolas, Monaco, monospace" font-size="9" fill="#e4e4e7">+ process_audio(in, out, frames)</text>
      <text x="10" y="96" font-family="SFMono-Regular, Consolas, Monaco, monospace" font-size="9" fill="#e4e4e7">+ push_param_change(fx, param, val)</text>
      <text x="10" y="109" font-family="SFMono-Regular, Consolas, Monaco, monospace" font-size="9" fill="#e4e4e7">+ add_effect(fx)</text>
      <text x="10" y="122" font-family="SFMono-Regular, Consolas, Monaco, monospace" font-size="9" fill="#e4e4e7">+ remove_effect(idx)</text>
    </g>

    <!-- Class: AudioEngine -->
    <g transform="translate(40, 240)" filter="url(#shadow)">
      <!-- Main Background -->
      <rect width="240" height="280" rx="6" ry="6" fill="#1c1c1f" stroke="#2c2c30" stroke-width="1.2" />
      
      <!-- Top Accent Bar -->
      <path d="M 1 6 Q 1 1 239 1 Q 239 6 239 30 L 1 30 Z" fill="url(#gradient-accent)" opacity="0.85"/>
      <line x1="1" y1="30" x2="239" y2="30" stroke="#2c2c30" stroke-width="1"/>
          <text x="120.0" y="19" font-family="system-ui, sans-serif" font-size="12" font-weight="bold" font-style="normal" fill="#ffffff" text-anchor="middle">AudioEngine</text>
      <text x="10" y="44" font-family="SFMono-Regular, Consolas, Monaco, monospace" font-size="9" fill="#a1a1aa">- backend_ : unique_ptr<IAudioBackend></text>
      <text x="10" y="57" font-family="SFMono-Regular, Consolas, Monaco, monospace" font-size="9" fill="#a1a1aa">- main_graph_ : AudioGraph</text>
      <text x="10" y="70" font-family="SFMono-Regular, Consolas, Monaco, monospace" font-size="9" fill="#a1a1aa">- main_executor_ : shared_ptr<GraphExec></text>
      <text x="10" y="83" font-family="SFMono-Regular, Consolas, Monaco, monospace" font-size="9" fill="#a1a1aa">- recorder_ : unique_ptr<IRecorder></text>
      <text x="10" y="96" font-family="SFMono-Regular, Consolas, Monaco, monospace" font-size="9" fill="#a1a1aa">- metronome_ : unique_ptr<IMetronome></text>
      <text x="10" y="109" font-family="SFMono-Regular, Consolas, Monaco, monospace" font-size="9" fill="#a1a1aa">- input_level_ : atomic<float></text>
      <text x="10" y="122" font-family="SFMono-Regular, Consolas, Monaco, monospace" font-size="9" fill="#a1a1aa">- output_level_ : atomic<float></text>
      <line x1="1" y1="138" x2="239" y2="138" stroke="#2c2c30" stroke-width="0.8" opacity="0.6"/>
      <text x="10" y="152" font-family="SFMono-Regular, Consolas, Monaco, monospace" font-size="9" fill="#e4e4e7">+ initialize() : bool override</text>
      <text x="10" y="165" font-family="SFMono-Regular, Consolas, Monaco, monospace" font-size="9" fill="#e4e4e7">+ start() : bool override</text>
      <text x="10" y="178" font-family="SFMono-Regular, Consolas, Monaco, monospace" font-size="9" fill="#e4e4e7">+ stop() override</text>
      <text x="10" y="191" font-family="SFMono-Regular, Consolas, Monaco, monospace" font-size="9" fill="#e4e4e7">+ process_audio(in, out, frames) override</text>
      <text x="10" y="204" font-family="SFMono-Regular, Consolas, Monaco, monospace" font-size="9" fill="#e4e4e7">+ push_param_change(fx, param, val) override</text>
      <text x="10" y="217" font-family="SFMono-Regular, Consolas, Monaco, monospace" font-size="9" fill="#e4e4e7">+ graph() : AudioGraph&</text>
      <text x="10" y="230" font-family="SFMono-Regular, Consolas, Monaco, monospace" font-size="9" fill="#e4e4e7">+ commit_graph_changes()</text>
      <text x="10" y="243" font-family="SFMono-Regular, Consolas, Monaco, monospace" font-size="9" fill="#a1a1aa">- sync_graph_with_dummy_effects()</text>
    </g>

    <!-- Class: IAudioBackend -->
    <g transform="translate(330, 70)" filter="url(#shadow)">
      <!-- Main Background -->
      <rect width="220" height="130" rx="6" ry="6" fill="#1c1c1f" stroke="#2c2c30" stroke-width="1.2" stroke-dasharray='4,4'/>
      
      <!-- Top Accent Bar -->
      <path d="M 1 6 Q 1 1 219 1 Q 219 6 219 30 L 1 30 Z" fill="url(#gradient-interface)" opacity="0.85"/>
      <line x1="1" y1="30" x2="219" y2="30" stroke="#2c2c30" stroke-width="1"/>
          <text x="110.0" y="15" font-family="system-ui, sans-serif" font-size="9" fill="#e4e4e7" text-anchor="middle" font-style="italic" opacity="0.8">&lt;&lt;interface&gt;&gt;</text>
      <text x="110.0" y="26" font-family="system-ui, sans-serif" font-size="12" font-weight="bold" font-style="italic" fill="#ffffff" text-anchor="middle">IAudioBackend</text>
      <text x="10" y="44" font-family="SFMono-Regular, Consolas, Monaco, monospace" font-size="9" fill="#e4e4e7">+ initialize(eng : IAudioEngine*) : bool</text>
      <text x="10" y="57" font-family="SFMono-Regular, Consolas, Monaco, monospace" font-size="9" fill="#e4e4e7">+ shutdown()</text>
      <text x="10" y="70" font-family="SFMono-Regular, Consolas, Monaco, monospace" font-size="9" fill="#e4e4e7">+ start() : bool</text>
      <text x="10" y="83" font-family="SFMono-Regular, Consolas, Monaco, monospace" font-size="9" fill="#e4e4e7">+ stop()</text>
      <text x="10" y="96" font-family="SFMono-Regular, Consolas, Monaco, monospace" font-size="9" fill="#e4e4e7">+ get_input_devices() : vector<DevInfo></text>
      <text x="10" y="109" font-family="SFMono-Regular, Consolas, Monaco, monospace" font-size="9" fill="#e4e4e7">+ get_sample_rate() : int</text>
      <text x="10" y="122" font-family="SFMono-Regular, Consolas, Monaco, monospace" font-size="9" fill="#e4e4e7">+ get_buffer_size() : int</text>
    </g>

    <!-- Class: PortAudioBackend -->
    <g transform="translate(600, 60)" filter="url(#shadow)">
      <!-- Main Background -->
      <rect width="130" height="45" rx="6" ry="6" fill="#1c1c1f" stroke="#2c2c30" stroke-width="1.2" />
      
      <!-- Top Accent Bar -->
      <path d="M 1 6 Q 1 1 129 1 Q 129 6 129 30 L 1 30 Z" fill="#27272a" opacity="0.85"/>
      <line x1="1" y1="30" x2="129" y2="30" stroke="#2c2c30" stroke-width="1"/>
          <text x="65.0" y="19" font-family="system-ui, sans-serif" font-size="12" font-weight="bold" font-style="normal" fill="#ffffff" text-anchor="middle">PortAudioBackend</text>
    </g>

    <!-- Class: OboeBackend -->
    <g transform="translate(600, 115)" filter="url(#shadow)">
      <!-- Main Background -->
      <rect width="130" height="45" rx="6" ry="6" fill="#1c1c1f" stroke="#2c2c30" stroke-width="1.2" />
      
      <!-- Top Accent Bar -->
      <path d="M 1 6 Q 1 1 129 1 Q 129 6 129 30 L 1 30 Z" fill="#27272a" opacity="0.85"/>
      <line x1="1" y1="30" x2="129" y2="30" stroke="#2c2c30" stroke-width="1"/>
          <text x="65.0" y="19" font-family="system-ui, sans-serif" font-size="12" font-weight="bold" font-style="normal" fill="#ffffff" text-anchor="middle">OboeBackend</text>
    </g>

    <!-- Class: SDLBackend -->
    <g transform="translate(600, 170)" filter="url(#shadow)">
      <!-- Main Background -->
      <rect width="130" height="45" rx="6" ry="6" fill="#1c1c1f" stroke="#2c2c30" stroke-width="1.2" />
      
      <!-- Top Accent Bar -->
      <path d="M 1 6 Q 1 1 129 1 Q 129 6 129 30 L 1 30 Z" fill="#27272a" opacity="0.85"/>
      <line x1="1" y1="30" x2="129" y2="30" stroke="#2c2c30" stroke-width="1"/>
          <text x="65.0" y="19" font-family="system-ui, sans-serif" font-size="12" font-weight="bold" font-style="normal" fill="#ffffff" text-anchor="middle">SDLBackend</text>
    </g>

    <!-- Class: JackBackend -->
    <g transform="translate(600, 225)" filter="url(#shadow)">
      <!-- Main Background -->
      <rect width="130" height="45" rx="6" ry="6" fill="#1c1c1f" stroke="#2c2c30" stroke-width="1.2" />
      
      <!-- Top Accent Bar -->
      <path d="M 1 6 Q 1 1 129 1 Q 129 6 129 30 L 1 30 Z" fill="#27272a" opacity="0.85"/>
      <line x1="1" y1="30" x2="129" y2="30" stroke="#2c2c30" stroke-width="1"/>
          <text x="65.0" y="19" font-family="system-ui, sans-serif" font-size="12" font-weight="bold" font-style="normal" fill="#ffffff" text-anchor="middle">JackBackend</text>
    </g>

    <!-- Class: AudioGraph -->
    <g transform="translate(330, 240)" filter="url(#shadow)">
      <!-- Main Background -->
      <rect width="220" height="100" rx="6" ry="6" fill="#1c1c1f" stroke="#2c2c30" stroke-width="1.2" />
      
      <!-- Top Accent Bar -->
      <path d="M 1 6 Q 1 1 219 1 Q 219 6 219 30 L 1 30 Z" fill="#27272a" opacity="0.85"/>
      <line x1="1" y1="30" x2="219" y2="30" stroke="#2c2c30" stroke-width="1"/>
          <text x="110.0" y="19" font-family="system-ui, sans-serif" font-size="12" font-weight="bold" font-style="normal" fill="#ffffff" text-anchor="middle">AudioGraph</text>
      <text x="10" y="44" font-family="SFMono-Regular, Consolas, Monaco, monospace" font-size="9" fill="#a1a1aa">- nodes_ : map<int, DspNode></text>
      <text x="10" y="57" font-family="SFMono-Regular, Consolas, Monaco, monospace" font-size="9" fill="#a1a1aa">- links_ : vector<GraphLink></text>
      <line x1="1" y1="73" x2="219" y2="73" stroke="#2c2c30" stroke-width="0.8" opacity="0.6"/>
      <text x="10" y="87" font-family="SFMono-Regular, Consolas, Monaco, monospace" font-size="9" fill="#e4e4e7">+ add_node(node)</text>
      <text x="10" y="100" font-family="SFMono-Regular, Consolas, Monaco, monospace" font-size="9" fill="#e4e4e7">+ remove_node(id)</text>
      <text x="10" y="113" font-family="SFMono-Regular, Consolas, Monaco, monospace" font-size="9" fill="#e4e4e7">+ connect(src, dst)</text>
      <text x="10" y="126" font-family="SFMono-Regular, Consolas, Monaco, monospace" font-size="9" fill="#e4e4e7">+ compile() : shared_ptr<GraphExec></text>
    </g>

    <!-- Class: AudioGraphExecutor -->
    <g transform="translate(330, 360)" filter="url(#shadow)">
      <!-- Main Background -->
      <rect width="220" height="80" rx="6" ry="6" fill="#1c1c1f" stroke="#2c2c30" stroke-width="1.2" />
      
      <!-- Top Accent Bar -->
      <path d="M 1 6 Q 1 1 219 1 Q 219 6 219 30 L 1 30 Z" fill="#27272a" opacity="0.85"/>
      <line x1="1" y1="30" x2="219" y2="30" stroke="#2c2c30" stroke-width="1"/>
          <text x="110.0" y="19" font-family="system-ui, sans-serif" font-size="12" font-weight="bold" font-style="normal" fill="#ffffff" text-anchor="middle">AudioGraphExecutor</text>
      <text x="10" y="44" font-family="SFMono-Regular, Consolas, Monaco, monospace" font-size="9" fill="#a1a1aa">- execution_order_ : vector<DspNode*></text>
      <line x1="1" y1="60" x2="219" y2="60" stroke="#2c2c30" stroke-width="0.8" opacity="0.6"/>
      <text x="10" y="74" font-family="SFMono-Regular, Consolas, Monaco, monospace" font-size="9" fill="#e4e4e7">+ process(in, out, frames)</text>
      <text x="10" y="87" font-family="SFMono-Regular, Consolas, Monaco, monospace" font-size="9" fill="#e4e4e7">+ reset()</text>
    </g>

    <!-- Class: IProcessor -->
    <g transform="translate(790, 340)" filter="url(#shadow)">
      <!-- Main Background -->
      <rect width="170" height="65" rx="6" ry="6" fill="#1c1c1f" stroke="#2c2c30" stroke-width="1.2" stroke-dasharray='4,4'/>
      
      <!-- Top Accent Bar -->
      <path d="M 1 6 Q 1 1 169 1 Q 169 6 169 30 L 1 30 Z" fill="url(#gradient-interface)" opacity="0.85"/>
      <line x1="1" y1="30" x2="169" y2="30" stroke="#2c2c30" stroke-width="1"/>
          <text x="85.0" y="15" font-family="system-ui, sans-serif" font-size="9" fill="#e4e4e7" text-anchor="middle" font-style="italic" opacity="0.8">&lt;&lt;interface&gt;&gt;</text>
      <text x="85.0" y="26" font-family="system-ui, sans-serif" font-size="12" font-weight="bold" font-style="italic" fill="#ffffff" text-anchor="middle">IProcessor</text>
      <text x="10" y="44" font-family="SFMono-Regular, Consolas, Monaco, monospace" font-size="9" fill="#e4e4e7">+ process(buf, n) = 0</text>
      <text x="10" y="57" font-family="SFMono-Regular, Consolas, Monaco, monospace" font-size="9" fill="#e4e4e7">+ reset() = 0</text>
    </g>

    <!-- Class: IParameterizable -->
    <g transform="translate(980, 340)" filter="url(#shadow)">
      <!-- Main Background -->
      <rect width="170" height="65" rx="6" ry="6" fill="#1c1c1f" stroke="#2c2c30" stroke-width="1.2" stroke-dasharray='4,4'/>
      
      <!-- Top Accent Bar -->
      <path d="M 1 6 Q 1 1 169 1 Q 169 6 169 30 L 1 30 Z" fill="url(#gradient-interface)" opacity="0.85"/>
      <line x1="1" y1="30" x2="169" y2="30" stroke="#2c2c30" stroke-width="1"/>
          <text x="85.0" y="15" font-family="system-ui, sans-serif" font-size="9" fill="#e4e4e7" text-anchor="middle" font-style="italic" opacity="0.8">&lt;&lt;interface&gt;&gt;</text>
      <text x="85.0" y="26" font-family="system-ui, sans-serif" font-size="12" font-weight="bold" font-style="italic" fill="#ffffff" text-anchor="middle">IParameterizable</text>
      <text x="10" y="44" font-family="SFMono-Regular, Consolas, Monaco, monospace" font-size="9" fill="#e4e4e7">+ params() = 0</text>
      <text x="10" y="57" font-family="SFMono-Regular, Consolas, Monaco, monospace" font-size="9" fill="#e4e4e7">+ get_param_value()</text>
    </g>

    <!-- Class: ISerializable -->
    <g transform="translate(790, 425)" filter="url(#shadow)">
      <!-- Main Background -->
      <rect width="170" height="65" rx="6" ry="6" fill="#1c1c1f" stroke="#2c2c30" stroke-width="1.2" stroke-dasharray='4,4'/>
      
      <!-- Top Accent Bar -->
      <path d="M 1 6 Q 1 1 169 1 Q 169 6 169 30 L 1 30 Z" fill="url(#gradient-interface)" opacity="0.85"/>
      <line x1="1" y1="30" x2="169" y2="30" stroke="#2c2c30" stroke-width="1"/>
          <text x="85.0" y="15" font-family="system-ui, sans-serif" font-size="9" fill="#e4e4e7" text-anchor="middle" font-style="italic" opacity="0.8">&lt;&lt;interface&gt;&gt;</text>
      <text x="85.0" y="26" font-family="system-ui, sans-serif" font-size="12" font-weight="bold" font-style="italic" fill="#ffffff" text-anchor="middle">ISerializable</text>
      <text x="10" y="44" font-family="SFMono-Regular, Consolas, Monaco, monospace" font-size="9" fill="#e4e4e7">+ get_params()</text>
      <text x="10" y="57" font-family="SFMono-Regular, Consolas, Monaco, monospace" font-size="9" fill="#e4e4e7">+ set_params(json)</text>
    </g>

    <!-- Class: IMetadata -->
    <g transform="translate(980, 425)" filter="url(#shadow)">
      <!-- Main Background -->
      <rect width="170" height="65" rx="6" ry="6" fill="#1c1c1f" stroke="#2c2c30" stroke-width="1.2" stroke-dasharray='4,4'/>
      
      <!-- Top Accent Bar -->
      <path d="M 1 6 Q 1 1 169 1 Q 169 6 169 30 L 1 30 Z" fill="url(#gradient-interface)" opacity="0.85"/>
      <line x1="1" y1="30" x2="169" y2="30" stroke="#2c2c30" stroke-width="1"/>
          <text x="85.0" y="15" font-family="system-ui, sans-serif" font-size="9" fill="#e4e4e7" text-anchor="middle" font-style="italic" opacity="0.8">&lt;&lt;interface&gt;&gt;</text>
      <text x="85.0" y="26" font-family="system-ui, sans-serif" font-size="12" font-weight="bold" font-style="italic" fill="#ffffff" text-anchor="middle">IMetadata</text>
      <text x="10" y="44" font-family="SFMono-Regular, Consolas, Monaco, monospace" font-size="9" fill="#e4e4e7">+ name() = 0</text>
      <text x="10" y="57" font-family="SFMono-Regular, Consolas, Monaco, monospace" font-size="9" fill="#e4e4e7">+ get_display_name()</text>
    </g>

    <!-- Class: Effect -->
    <g transform="translate(880, 515)" filter="url(#shadow)">
      <!-- Main Background -->
      <rect width="220" height="150" rx="6" ry="6" fill="#1c1c1f" stroke="#2c2c30" stroke-width="1.2" />
      
      <!-- Top Accent Bar -->
      <path d="M 1 6 Q 1 1 219 1 Q 219 6 219 30 L 1 30 Z" fill="url(#gradient-abstract)" opacity="0.85"/>
      <line x1="1" y1="30" x2="219" y2="30" stroke="#2c2c30" stroke-width="1"/>
          <text x="110.0" y="15" font-family="system-ui, sans-serif" font-size="9" fill="#e4e4e7" text-anchor="middle" font-style="italic" opacity="0.8">&lt;&lt;abstract&gt;&gt;</text>
      <text x="110.0" y="26" font-family="system-ui, sans-serif" font-size="12" font-weight="bold" font-style="italic" fill="#ffffff" text-anchor="middle">Effect</text>
      <text x="10" y="44" font-family="SFMono-Regular, Consolas, Monaco, monospace" font-size="9" fill="#a1a1aa"># sample_rate_ : int</text>
      <text x="10" y="57" font-family="SFMono-Regular, Consolas, Monaco, monospace" font-size="9" fill="#a1a1aa"># enabled_ : atomic<bool></text>
      <text x="10" y="70" font-family="SFMono-Regular, Consolas, Monaco, monospace" font-size="9" fill="#a1a1aa"># mix_ : atomic<float></text>
      <line x1="1" y1="86" x2="219" y2="86" stroke="#2c2c30" stroke-width="0.8" opacity="0.6"/>
      <text x="10" y="100" font-family="SFMono-Regular, Consolas, Monaco, monospace" font-size="9" fill="#e4e4e7">+ process(buf, n) override = 0</text>
      <text x="10" y="113" font-family="SFMono-Regular, Consolas, Monaco, monospace" font-size="9" fill="#e4e4e7">+ process_stereo(l, r, n) override</text>
      <text x="10" y="126" font-family="SFMono-Regular, Consolas, Monaco, monospace" font-size="9" fill="#e4e4e7">+ name() const override = 0</text>
      <text x="10" y="139" font-family="SFMono-Regular, Consolas, Monaco, monospace" font-size="9" fill="#e4e4e7">+ get_params() const override</text>
      <text x="10" y="152" font-family="SFMono-Regular, Consolas, Monaco, monospace" font-size="9" fill="#e4e4e7">+ set_params(json) override</text>
      <text x="10" y="165" font-family="SFMono-Regular, Consolas, Monaco, monospace" font-size="9" fill="#a1a1aa"># apply_mix(dry, wet, n)</text>
    </g>

    <!-- Class: Concrete Effects (DSP) -->
    <g transform="translate(870, 695)" filter="url(#shadow)">
      <!-- Main Background -->
      <rect width="240" height="95" rx="6" ry="6" fill="#1c1c1f" stroke="#2c2c30" stroke-width="1.2" />
      
      <!-- Top Accent Bar -->
      <path d="M 1 6 Q 1 1 239 1 Q 239 6 239 30 L 1 30 Z" fill="#27272a" opacity="0.85"/>
      <line x1="1" y1="30" x2="239" y2="30" stroke="#2c2c30" stroke-width="1"/>
          <text x="120.0" y="19" font-family="system-ui, sans-serif" font-size="12" font-weight="bold" font-style="normal" fill="#ffffff" text-anchor="middle">Concrete Effects (DSP)</text>
      <text x="10" y="44" font-family="SFMono-Regular, Consolas, Monaco, monospace" font-size="9" fill="#a1a1aa">e.g., NoiseGate, Overdrive, Equalizer, AmpSimulator,</text>
      <text x="10" y="57" font-family="SFMono-Regular, Consolas, Monaco, monospace" font-size="9" fill="#a1a1aa">      CabinetSim, Reverb, Delay, Chorus, WahPedal, ...</text>
      <line x1="1" y1="73" x2="239" y2="73" stroke="#2c2c30" stroke-width="0.8" opacity="0.6"/>
      <text x="10" y="87" font-family="SFMono-Regular, Consolas, Monaco, monospace" font-size="9" fill="#e4e4e7">+ process(buf, n) override</text>
      <text x="10" y="100" font-family="SFMono-Regular, Consolas, Monaco, monospace" font-size="9" fill="#e4e4e7">+ reset() override</text>
      <text x="10" y="113" font-family="SFMono-Regular, Consolas, Monaco, monospace" font-size="9" fill="#e4e4e7">+ name() const override</text>
      <text x="10" y="126" font-family="SFMono-Regular, Consolas, Monaco, monospace" font-size="9" fill="#e4e4e7">+ params() override</text>
    </g>
    <line x1="160" y1="240" x2="160" y2="200" stroke="#71717a" stroke-width="1.2"   marker-end="url(#inheritance)"/>
    <path d="M 280 280 L 305 280 L 305 135 L 330 135" fill="none" stroke="#71717a" stroke-width="1.2"  marker-start="url(#composition)" />
    <line x1="280" y1="290" x2="330" y2="290" stroke="#71717a" stroke-width="1.2"  marker-start="url(#composition)" />
    <text x="305.0" y="285.0" font-family="system-ui, sans-serif" font-size="9" fill="#a1a1aa" text-anchor="middle">owns</text>
    <line x1="280" y1="400" x2="330" y2="400" stroke="#71717a" stroke-width="1.2"  marker-start="url(#composition)" />
    <text x="305.0" y="395.0" font-family="system-ui, sans-serif" font-size="9" fill="#a1a1aa" text-anchor="middle">uses executor</text>
    <path d="M 600 82 L 550 110" fill="none" stroke="#71717a" stroke-width="1.2"   marker-end="url(#inheritance)"/>
    <path d="M 600 137 L 550 137" fill="none" stroke="#71717a" stroke-width="1.2"   marker-end="url(#inheritance)"/>
    <path d="M 600 192 L 550 160" fill="none" stroke="#71717a" stroke-width="1.2"   marker-end="url(#inheritance)"/>
    <path d="M 600 247 L 550 180" fill="none" stroke="#71717a" stroke-width="1.2"   marker-end="url(#inheritance)"/>
    <path d="M 920 515 L 880 405" fill="none" stroke="#71717a" stroke-width="1.2" stroke-dasharray='4,4'  marker-end="url(#inheritance)"/>
    <path d="M 960 515 L 1020 405" fill="none" stroke="#71717a" stroke-width="1.2" stroke-dasharray='4,4'  marker-end="url(#inheritance)"/>
    <path d="M 900 515 L 850 490" fill="none" stroke="#71717a" stroke-width="1.2" stroke-dasharray='4,4'  marker-end="url(#inheritance)"/>
    <path d="M 980 515 L 1050 490" fill="none" stroke="#71717a" stroke-width="1.2" stroke-dasharray='4,4'  marker-end="url(#inheritance)"/>
    <line x1="990" y1="695" x2="990" y2="665" stroke="#71717a" stroke-width="1.2"   marker-end="url(#inheritance)"/>
    <path d="M 550 290 L 770 290 L 770 590 L 880 590" fill="none" stroke="#71717a" stroke-width="1.2"  marker-start="url(#aggregation)" />
    <text x="710" y="280" font-family="system-ui, sans-serif" font-size="9" fill="#a1a1aa" text-anchor="middle">contains effects</text>

</svg>
